<?xml version="1.0" encoding="utf-8"?>
<!-- Generator: Adobe Illustrator 23.0.3, SVG Export Plug-In . SVG Version: 6.00 Build 0)  -->
<svg version="1.1" id="Capa_1" xmlns="http://www.w3.org/2000/svg" xmlns:xlink="http://www.w3.org/1999/xlink" x="0px" y="0px"
	 viewBox="0 0 1024 512" style="enable-background:new 0 0 1024 512;" xml:space="preserve">
<style type="text/css">
	.st0{fill:#44675A;}
</style>
<path class="st0" d="M652.2,244.8c-0.9-0.9-1.9-1.6-3-2.3l-1.1-0.8L395.6,4.9c-3.3-3.2-7.5-4.9-12-4.9s-8.7,1.7-11.9,4.8
	c-3.1,3-4.8,7.1-4.8,11.4s1.7,8.3,4.8,11.4l244.1,229L372.1,484.7c-3,2.9-4.7,7-4.7,11.3s1.7,8.3,4.8,11.4c6.3,6.2,17.4,6.2,23.7,0
	l255.5-239.1c3.9-3.8,5.6-7.8,5.6-12.1C657,251.9,655.3,247.9,652.2,244.8z M656.1,272.8L656.1,272.8L656.1,272.8z"/>
</svg>
